<?xml version="1.0" standalone="no"?>
<!DOCTYPE svg PUBLIC "-//W3C//DTD SVG 20010904//EN"
 "http://www.w3.org/TR/2001/REC-SVG-20010904/DTD/svg10.dtd">
<svg version="1.0" xmlns="http://www.w3.org/2000/svg"
 width="270.000000pt" height="270.000000pt" viewBox="0 0 270.000000 270.000000"
 preserveAspectRatio="xMidYMid meet">
<metadata>
Created by potrace 1.11, written by Peter Selinger 2001-2013
</metadata>
<g transform="translate(0.000000,270.000000) scale(0.100000,-0.100000)"
fill="#000000" stroke="none">
<path d="M1454 2223 c-20 -21 -59 -73 -88 -116 -54 -82 -62 -82 -65 -6 -2 40
-34 62 -99 67 -49 3 -60 1 -77 -18 -19 -21 -20 -35 -19 -309 1 -252 7 -338 43
-721 60 -633 60 -638 86 -667 31 -36 114 -44 144 -14 26 26 27 59 6 272 -42
446 -57 692 -45 758 32 189 41 219 91 319 28 56 55 102 60 102 10 0 7 12 59
-335 22 -148 47 -319 56 -380 10 -70 17 -185 18 -318 1 -238 1 -237 86 -237
85 0 84 -6 77 332 -4 161 -13 349 -21 416 -15 123 -15 124 10 209 14 47 29 93
34 102 11 21 73 79 140 131 l54 42 7 -28 c14 -60 59 -887 64 -1198 3 -165 9
-253 16 -262 16 -19 129 -19 155 0 18 14 19 28 18 293 -1 241 -47 1282 -59
1338 -2 11 -6 33 -10 48 -8 40 -58 67 -123 67 -61 0 -84 -13 -246 -142 -54
-44 -104 -77 -110 -75 -7 3 -17 54 -24 132 -7 69 -18 143 -25 163 -15 46 -62
72 -129 72 -41 0 -52 -5 -84 -37z"/>
<path d="M447 2200 c-42 -33 -51 -137 -43 -477 3 -158 9 -361 12 -450 5 -113
4 -163 -4 -163 -20 0 -42 -31 -42 -61 0 -17 11 -41 27 -59 l28 -31 -6 -262
c-3 -157 -2 -267 4 -274 12 -16 98 -17 131 -2 37 17 45 54 51 247 8 240 11
261 38 266 100 19 135 30 154 48 33 31 30 73 -8 110 -30 30 -32 31 -103 25
l-73 -5 -6 231 c-4 128 -7 334 -7 460 0 210 1 227 18 227 9 0 80 -11 156 -25
161 -29 261 -33 269 -11 12 30 -6 87 -34 110 -31 26 -210 74 -379 101 -125 20
-152 19 -183 -5z"/>
</g>
</svg>
